<mxfile host="app.diagrams.net" modified="2022-11-02T14:19:30.314Z" agent="5.0 (Windows NT 10.0; Win64; x64) AppleWebKit/537.36 (KHTML, like Gecko) Chrome/106.0.0.0 Safari/537.36" etag="69WczmMUGs3BJiEjdjcG" version="20.5.1" type="github">
  <diagram id="wK8BWu_7YzuwuYSMXOzN" name="Page-1">
    <mxGraphModel dx="1871" dy="1667" grid="1" gridSize="10" guides="1" tooltips="1" connect="1" arrows="1" fold="1" page="1" pageScale="1" pageWidth="850" pageHeight="1100" math="0" shadow="0">
      <root>
        <mxCell id="0" />
        <mxCell id="1" parent="0" />
        <mxCell id="IG2VRt3LI8GWW-ebmHYW-6" style="edgeStyle=orthogonalEdgeStyle;rounded=0;orthogonalLoop=1;jettySize=auto;html=1;entryX=0;entryY=0.5;entryDx=0;entryDy=0;entryPerimeter=0;" parent="1" source="IG2VRt3LI8GWW-ebmHYW-1" target="IG2VRt3LI8GWW-ebmHYW-2" edge="1">
          <mxGeometry relative="1" as="geometry" />
        </mxCell>
        <mxCell id="IG2VRt3LI8GWW-ebmHYW-1" value="Nhận request từ Learner/BO&lt;br&gt;" style="points=[[0.145,0.145,0],[0.5,0,0],[0.855,0.145,0],[1,0.5,0],[0.855,0.855,0],[0.5,1,0],[0.145,0.855,0],[0,0.5,0]];shape=mxgraph.bpmn.event;html=1;verticalLabelPosition=bottom;labelBackgroundColor=#ffffff;verticalAlign=top;align=center;perimeter=ellipsePerimeter;outlineConnect=0;aspect=fixed;outline=standard;symbol=general;" parent="1" vertex="1">
          <mxGeometry x="-40" y="260" width="50" height="50" as="geometry" />
        </mxCell>
        <mxCell id="IG2VRt3LI8GWW-ebmHYW-7" style="edgeStyle=orthogonalEdgeStyle;rounded=0;orthogonalLoop=1;jettySize=auto;html=1;" parent="1" source="IG2VRt3LI8GWW-ebmHYW-2" target="IG2VRt3LI8GWW-ebmHYW-4" edge="1">
          <mxGeometry relative="1" as="geometry">
            <Array as="points">
              <mxPoint x="255" y="115" />
            </Array>
          </mxGeometry>
        </mxCell>
        <mxCell id="IG2VRt3LI8GWW-ebmHYW-36" value="Đúng" style="edgeLabel;html=1;align=center;verticalAlign=middle;resizable=0;points=[];" parent="IG2VRt3LI8GWW-ebmHYW-7" vertex="1" connectable="0">
          <mxGeometry x="-0.44" y="-1" relative="1" as="geometry">
            <mxPoint as="offset" />
          </mxGeometry>
        </mxCell>
        <mxCell id="IG2VRt3LI8GWW-ebmHYW-35" style="edgeStyle=orthogonalEdgeStyle;rounded=0;orthogonalLoop=1;jettySize=auto;html=1;entryX=0;entryY=0.5;entryDx=0;entryDy=0;entryPerimeter=0;" parent="1" source="IG2VRt3LI8GWW-ebmHYW-2" target="IG2VRt3LI8GWW-ebmHYW-33" edge="1">
          <mxGeometry relative="1" as="geometry">
            <Array as="points">
              <mxPoint x="255" y="460" />
            </Array>
          </mxGeometry>
        </mxCell>
        <mxCell id="IG2VRt3LI8GWW-ebmHYW-37" value="Sai" style="edgeLabel;html=1;align=center;verticalAlign=middle;resizable=0;points=[];" parent="IG2VRt3LI8GWW-ebmHYW-35" vertex="1" connectable="0">
          <mxGeometry x="-0.6908" y="1" relative="1" as="geometry">
            <mxPoint as="offset" />
          </mxGeometry>
        </mxCell>
        <mxCell id="IG2VRt3LI8GWW-ebmHYW-2" value="Hoàn thành trên PRUExpert&lt;br&gt;&amp;amp; Chưa có kết quả trên TMS (đã làm đúng bước)" style="points=[[0.25,0.25,0],[0.5,0,0],[0.75,0.25,0],[1,0.5,0],[0.75,0.75,0],[0.5,1,0],[0.25,0.75,0],[0,0.5,0]];shape=mxgraph.bpmn.gateway2;html=1;verticalLabelPosition=bottom;labelBackgroundColor=#ffffff;verticalAlign=top;align=center;perimeter=rhombusPerimeter;outlineConnect=0;outline=none;symbol=none;gwType=exclusive;" parent="1" vertex="1">
          <mxGeometry x="230" y="260" width="50" height="50" as="geometry" />
        </mxCell>
        <mxCell id="IG2VRt3LI8GWW-ebmHYW-14" style="edgeStyle=orthogonalEdgeStyle;rounded=0;orthogonalLoop=1;jettySize=auto;html=1;exitX=0.5;exitY=0;exitDx=0;exitDy=0;exitPerimeter=0;entryX=0.5;entryY=1;entryDx=0;entryDy=0;entryPerimeter=0;" parent="1" source="IG2VRt3LI8GWW-ebmHYW-4" target="IG2VRt3LI8GWW-ebmHYW-5" edge="1">
          <mxGeometry relative="1" as="geometry">
            <Array as="points">
              <mxPoint x="335" y="50" />
              <mxPoint x="575" y="50" />
            </Array>
          </mxGeometry>
        </mxCell>
        <mxCell id="IG2VRt3LI8GWW-ebmHYW-19" value="&amp;gt;2 profile giống nhau" style="edgeLabel;html=1;align=center;verticalAlign=middle;resizable=0;points=[];" parent="IG2VRt3LI8GWW-ebmHYW-14" vertex="1" connectable="0">
          <mxGeometry x="-0.2276" y="2" relative="1" as="geometry">
            <mxPoint as="offset" />
          </mxGeometry>
        </mxCell>
        <mxCell id="IG2VRt3LI8GWW-ebmHYW-16" style="edgeStyle=orthogonalEdgeStyle;rounded=0;orthogonalLoop=1;jettySize=auto;html=1;entryX=0;entryY=0.5;entryDx=0;entryDy=0;entryPerimeter=0;" parent="1" source="IG2VRt3LI8GWW-ebmHYW-4" target="IG2VRt3LI8GWW-ebmHYW-15" edge="1">
          <mxGeometry relative="1" as="geometry">
            <Array as="points">
              <mxPoint x="520" y="115" />
            </Array>
          </mxGeometry>
        </mxCell>
        <mxCell id="IG2VRt3LI8GWW-ebmHYW-20" value="&amp;gt;=2 profile khác nhau" style="edgeLabel;html=1;align=center;verticalAlign=middle;resizable=0;points=[];" parent="IG2VRt3LI8GWW-ebmHYW-16" vertex="1" connectable="0">
          <mxGeometry x="-0.1879" y="-1" relative="1" as="geometry">
            <mxPoint as="offset" />
          </mxGeometry>
        </mxCell>
        <mxCell id="IG2VRt3LI8GWW-ebmHYW-18" style="edgeStyle=orthogonalEdgeStyle;rounded=0;orthogonalLoop=1;jettySize=auto;html=1;entryX=0;entryY=0.5;entryDx=0;entryDy=0;entryPerimeter=0;" parent="1" source="IG2VRt3LI8GWW-ebmHYW-4" target="IG2VRt3LI8GWW-ebmHYW-17" edge="1">
          <mxGeometry relative="1" as="geometry">
            <Array as="points">
              <mxPoint x="335" y="230" />
            </Array>
          </mxGeometry>
        </mxCell>
        <mxCell id="IG2VRt3LI8GWW-ebmHYW-21" value="Chỉ có 1 profile" style="edgeLabel;html=1;align=center;verticalAlign=middle;resizable=0;points=[];" parent="IG2VRt3LI8GWW-ebmHYW-18" vertex="1" connectable="0">
          <mxGeometry x="0.1719" y="-2" relative="1" as="geometry">
            <mxPoint as="offset" />
          </mxGeometry>
        </mxCell>
        <mxCell id="IG2VRt3LI8GWW-ebmHYW-4" value="Kiểm tra trùng LitmosID" style="points=[[0.25,0.25,0],[0.5,0,0],[0.75,0.25,0],[1,0.5,0],[0.75,0.75,0],[0.5,1,0],[0.25,0.75,0],[0,0.5,0]];shape=mxgraph.bpmn.gateway2;html=1;verticalLabelPosition=bottom;labelBackgroundColor=#ffffff;verticalAlign=top;align=center;perimeter=rhombusPerimeter;outlineConnect=0;outline=none;symbol=none;gwType=exclusive;" parent="1" vertex="1">
          <mxGeometry x="310" y="90" width="50" height="50" as="geometry" />
        </mxCell>
        <mxCell id="IG2VRt3LI8GWW-ebmHYW-23" style="edgeStyle=orthogonalEdgeStyle;rounded=0;orthogonalLoop=1;jettySize=auto;html=1;exitX=1;exitY=0.5;exitDx=0;exitDy=0;exitPerimeter=0;entryX=0.5;entryY=0;entryDx=0;entryDy=0;entryPerimeter=0;" parent="1" source="IG2VRt3LI8GWW-ebmHYW-5" target="IG2VRt3LI8GWW-ebmHYW-22" edge="1">
          <mxGeometry relative="1" as="geometry" />
        </mxCell>
        <mxCell id="IG2VRt3LI8GWW-ebmHYW-5" value="Gửi BO để thống nhất 1 profile" style="points=[[0.25,0,0],[0.5,0,0],[0.75,0,0],[1,0.25,0],[1,0.5,0],[1,0.75,0],[0.75,1,0],[0.5,1,0],[0.25,1,0],[0,0.75,0],[0,0.5,0],[0,0.25,0]];shape=mxgraph.bpmn.task;whiteSpace=wrap;rectStyle=rounded;size=10;taskMarker=abstract;" parent="1" vertex="1">
          <mxGeometry x="520" y="-20" width="110" height="60" as="geometry" />
        </mxCell>
        <mxCell id="IG2VRt3LI8GWW-ebmHYW-11" style="edgeStyle=orthogonalEdgeStyle;rounded=0;orthogonalLoop=1;jettySize=auto;html=1;entryX=0.382;entryY=-0.017;entryDx=0;entryDy=0;entryPerimeter=0;" parent="1" source="IG2VRt3LI8GWW-ebmHYW-9" target="IG2VRt3LI8GWW-ebmHYW-5" edge="1">
          <mxGeometry relative="1" as="geometry">
            <Array as="points">
              <mxPoint x="562" y="-80" />
            </Array>
          </mxGeometry>
        </mxCell>
        <mxCell id="IG2VRt3LI8GWW-ebmHYW-9" value="Profile bị trùng" style="shape=mxgraph.bpmn.data;labelPosition=center;verticalLabelPosition=bottom;align=center;verticalAlign=top;whiteSpace=wrap;size=15;html=1;" parent="1" vertex="1">
          <mxGeometry x="440" y="-120" width="60" height="60" as="geometry" />
        </mxCell>
        <mxCell id="IG2VRt3LI8GWW-ebmHYW-13" value="" style="edgeStyle=orthogonalEdgeStyle;rounded=0;orthogonalLoop=1;jettySize=auto;html=1;" parent="1" source="IG2VRt3LI8GWW-ebmHYW-12" target="IG2VRt3LI8GWW-ebmHYW-5" edge="1">
          <mxGeometry relative="1" as="geometry">
            <Array as="points">
              <mxPoint x="575" y="-80" />
            </Array>
          </mxGeometry>
        </mxCell>
        <mxCell id="IG2VRt3LI8GWW-ebmHYW-12" value="1 profile" style="shape=mxgraph.bpmn.data;labelPosition=center;verticalLabelPosition=bottom;align=center;verticalAlign=top;whiteSpace=wrap;size=15;html=1;" parent="1" vertex="1">
          <mxGeometry x="700" y="-120" width="60" height="60" as="geometry" />
        </mxCell>
        <mxCell id="IG2VRt3LI8GWW-ebmHYW-26" style="edgeStyle=orthogonalEdgeStyle;rounded=0;orthogonalLoop=1;jettySize=auto;html=1;entryX=0.25;entryY=0;entryDx=0;entryDy=0;entryPerimeter=0;" parent="1" source="IG2VRt3LI8GWW-ebmHYW-15" target="IG2VRt3LI8GWW-ebmHYW-22" edge="1">
          <mxGeometry relative="1" as="geometry" />
        </mxCell>
        <mxCell id="IG2VRt3LI8GWW-ebmHYW-15" value="Gửi email Luân để review action" style="points=[[0.25,0,0],[0.5,0,0],[0.75,0,0],[1,0.25,0],[1,0.5,0],[1,0.75,0],[0.75,1,0],[0.5,1,0],[0.25,1,0],[0,0.75,0],[0,0.5,0],[0,0.25,0]];shape=mxgraph.bpmn.task;whiteSpace=wrap;rectStyle=rounded;size=10;taskMarker=abstract;" parent="1" vertex="1">
          <mxGeometry x="520" y="80" width="110" height="60" as="geometry" />
        </mxCell>
        <mxCell id="IG2VRt3LI8GWW-ebmHYW-27" style="edgeStyle=orthogonalEdgeStyle;rounded=0;orthogonalLoop=1;jettySize=auto;html=1;entryX=0;entryY=0.5;entryDx=0;entryDy=0;entryPerimeter=0;" parent="1" source="IG2VRt3LI8GWW-ebmHYW-17" target="IG2VRt3LI8GWW-ebmHYW-22" edge="1">
          <mxGeometry relative="1" as="geometry" />
        </mxCell>
        <mxCell id="IG2VRt3LI8GWW-ebmHYW-17" value="Gửi email Luân để log check job" style="points=[[0.25,0,0],[0.5,0,0],[0.75,0,0],[1,0.25,0],[1,0.5,0],[1,0.75,0],[0.75,1,0],[0.5,1,0],[0.25,1,0],[0,0.75,0],[0,0.5,0],[0,0.25,0]];shape=mxgraph.bpmn.task;whiteSpace=wrap;rectStyle=rounded;size=10;taskMarker=abstract;" parent="1" vertex="1">
          <mxGeometry x="530" y="200" width="110" height="60" as="geometry" />
        </mxCell>
        <mxCell id="IG2VRt3LI8GWW-ebmHYW-32" value="" style="edgeStyle=orthogonalEdgeStyle;rounded=0;orthogonalLoop=1;jettySize=auto;html=1;" parent="1" source="IG2VRt3LI8GWW-ebmHYW-22" target="IG2VRt3LI8GWW-ebmHYW-31" edge="1">
          <mxGeometry relative="1" as="geometry" />
        </mxCell>
        <mxCell id="IG2VRt3LI8GWW-ebmHYW-22" value="Upload kết quả sau khi có confirm/ review" style="points=[[0.25,0,0],[0.5,0,0],[0.75,0,0],[1,0.25,0],[1,0.5,0],[1,0.75,0],[0.75,1,0],[0.5,1,0],[0.25,1,0],[0,0.75,0],[0,0.5,0],[0,0.25,0]];shape=mxgraph.bpmn.task;whiteSpace=wrap;rectStyle=rounded;size=10;taskMarker=abstract;" parent="1" vertex="1">
          <mxGeometry x="700" y="260" width="110" height="60" as="geometry" />
        </mxCell>
        <mxCell id="IG2VRt3LI8GWW-ebmHYW-30" value="Kết thúc" style="points=[[0.145,0.145,0],[0.5,0,0],[0.855,0.145,0],[1,0.5,0],[0.855,0.855,0],[0.5,1,0],[0.145,0.855,0],[0,0.5,0]];shape=mxgraph.bpmn.event;html=1;verticalLabelPosition=bottom;labelBackgroundColor=#ffffff;verticalAlign=top;align=center;perimeter=ellipsePerimeter;outlineConnect=0;aspect=fixed;outline=end;symbol=terminate2;" parent="1" vertex="1">
          <mxGeometry x="730" y="525" width="50" height="50" as="geometry" />
        </mxCell>
        <mxCell id="IG2VRt3LI8GWW-ebmHYW-34" style="edgeStyle=orthogonalEdgeStyle;rounded=0;orthogonalLoop=1;jettySize=auto;html=1;" parent="1" source="IG2VRt3LI8GWW-ebmHYW-31" target="IG2VRt3LI8GWW-ebmHYW-33" edge="1">
          <mxGeometry relative="1" as="geometry" />
        </mxCell>
        <mxCell id="IG2VRt3LI8GWW-ebmHYW-31" value="Input form + lưu evidence" style="points=[[0.25,0,0],[0.5,0,0],[0.75,0,0],[1,0.25,0],[1,0.5,0],[1,0.75,0],[0.75,1,0],[0.5,1,0],[0.25,1,0],[0,0.75,0],[0,0.5,0],[0,0.25,0]];shape=mxgraph.bpmn.task;whiteSpace=wrap;rectStyle=rounded;size=10;taskMarker=abstract;" parent="1" vertex="1">
          <mxGeometry x="700" y="350" width="110" height="60" as="geometry" />
        </mxCell>
        <mxCell id="IG2VRt3LI8GWW-ebmHYW-38" style="edgeStyle=orthogonalEdgeStyle;rounded=0;orthogonalLoop=1;jettySize=auto;html=1;exitX=0.5;exitY=1;exitDx=0;exitDy=0;exitPerimeter=0;entryX=0.5;entryY=0;entryDx=0;entryDy=0;entryPerimeter=0;" parent="1" source="IG2VRt3LI8GWW-ebmHYW-33" target="IG2VRt3LI8GWW-ebmHYW-30" edge="1">
          <mxGeometry relative="1" as="geometry" />
        </mxCell>
        <mxCell id="IG2VRt3LI8GWW-ebmHYW-33" value="Reply User/BO" style="points=[[0.25,0,0],[0.5,0,0],[0.75,0,0],[1,0.25,0],[1,0.5,0],[1,0.75,0],[0.75,1,0],[0.5,1,0],[0.25,1,0],[0,0.75,0],[0,0.5,0],[0,0.25,0]];shape=mxgraph.bpmn.task;whiteSpace=wrap;rectStyle=rounded;size=10;taskMarker=abstract;" parent="1" vertex="1">
          <mxGeometry x="700" y="430" width="110" height="60" as="geometry" />
        </mxCell>
      </root>
    </mxGraphModel>
  </diagram>
</mxfile>
